G04*
G04 #@! TF.GenerationSoftware,Altium Limited,Altium Designer,25.1.2 (22)*
G04*
G04 Layer_Color=32896*
%FSLAX44Y44*%
%MOMM*%
G71*
G04*
G04 #@! TF.SameCoordinates,EEE0F29E-AF3B-46CB-B758-2A50891A52AB*
G04*
G04*
G04 #@! TF.FilePolarity,Positive*
G04*
G01*
G75*
G36*
X134461Y40259D02*
X138890Y33602D01*
X135793D01*
X132945Y37929D01*
X130106Y33602D01*
X127000D01*
X131410Y40268D01*
X127388Y46398D01*
X130384D01*
X132926Y42561D01*
X135460Y46398D01*
X138483D01*
X134461Y40259D01*
D02*
G37*
G36*
X150484Y33602D02*
X147904D01*
Y38946D01*
X147229D01*
X147072Y38937D01*
X146933D01*
X146813Y38928D01*
X146693Y38909D01*
X146582Y38900D01*
X146490Y38891D01*
X146406Y38872D01*
X146333Y38863D01*
X146268Y38844D01*
X146212Y38835D01*
X146166Y38826D01*
X146138Y38817D01*
X146111Y38807D01*
X146092Y38798D01*
X145935Y38733D01*
X145796Y38650D01*
X145667Y38567D01*
X145547Y38475D01*
X145454Y38391D01*
X145380Y38326D01*
X145334Y38280D01*
X145316Y38262D01*
X145242Y38179D01*
X145149Y38068D01*
X145047Y37947D01*
X144946Y37809D01*
X144835Y37652D01*
X144724Y37494D01*
X144493Y37180D01*
X144382Y37023D01*
X144280Y36875D01*
X144188Y36746D01*
X144104Y36625D01*
X144040Y36524D01*
X143993Y36450D01*
X143956Y36404D01*
X143947Y36385D01*
X142089Y33602D01*
X138991D01*
X140554Y36098D01*
X140721Y36367D01*
X140887Y36616D01*
X141035Y36838D01*
X141173Y37051D01*
X141303Y37236D01*
X141423Y37411D01*
X141534Y37559D01*
X141636Y37689D01*
X141728Y37809D01*
X141802Y37910D01*
X141867Y37994D01*
X141922Y38058D01*
X141969Y38105D01*
X141996Y38142D01*
X142015Y38160D01*
X142024Y38169D01*
X142237Y38382D01*
X142468Y38585D01*
X142699Y38770D01*
X142921Y38937D01*
X143023Y39002D01*
X143115Y39066D01*
X143198Y39122D01*
X143272Y39168D01*
X143328Y39205D01*
X143374Y39233D01*
X143402Y39242D01*
X143411Y39251D01*
X143106Y39307D01*
X142819Y39371D01*
X142551Y39445D01*
X142302Y39538D01*
X142070Y39630D01*
X141867Y39732D01*
X141682Y39824D01*
X141506Y39926D01*
X141358Y40028D01*
X141229Y40120D01*
X141127Y40203D01*
X141035Y40277D01*
X140970Y40342D01*
X140915Y40388D01*
X140887Y40416D01*
X140878Y40425D01*
X140730Y40610D01*
X140600Y40795D01*
X140480Y40999D01*
X140388Y41193D01*
X140304Y41396D01*
X140231Y41590D01*
X140175Y41784D01*
X140129Y41969D01*
X140101Y42145D01*
X140073Y42302D01*
X140055Y42450D01*
X140036Y42570D01*
Y42672D01*
X140027Y42746D01*
Y42792D01*
Y42811D01*
X140036Y43023D01*
X140055Y43218D01*
X140083Y43412D01*
X140110Y43597D01*
X140156Y43772D01*
X140203Y43939D01*
X140258Y44096D01*
X140304Y44234D01*
X140360Y44364D01*
X140415Y44484D01*
X140462Y44577D01*
X140499Y44660D01*
X140536Y44724D01*
X140563Y44780D01*
X140582Y44808D01*
X140591Y44817D01*
X140702Y44974D01*
X140813Y45122D01*
X140933Y45261D01*
X141053Y45381D01*
X141183Y45492D01*
X141303Y45594D01*
X141423Y45686D01*
X141543Y45769D01*
X141654Y45834D01*
X141756Y45889D01*
X141848Y45945D01*
X141922Y45982D01*
X141987Y46010D01*
X142043Y46028D01*
X142070Y46047D01*
X142080D01*
X142264Y46111D01*
X142477Y46167D01*
X142699Y46213D01*
X142930Y46250D01*
X143429Y46315D01*
X143670Y46333D01*
X143910Y46352D01*
X144141Y46370D01*
X144354Y46379D01*
X144548Y46389D01*
X144724D01*
X144862Y46398D01*
X150484D01*
Y33602D01*
D02*
G37*
G36*
X150604Y8207D02*
X148209D01*
Y16583D01*
X143041Y8207D01*
X140452D01*
Y21003D01*
X142847D01*
Y12432D01*
X148098Y21003D01*
X150604D01*
Y8207D01*
D02*
G37*
G36*
X158953Y21206D02*
X159276Y21188D01*
X159591Y21160D01*
X159877Y21114D01*
X160145Y21067D01*
X160395Y21012D01*
X160636Y20956D01*
X160848Y20901D01*
X161033Y20836D01*
X161199Y20781D01*
X161347Y20725D01*
X161468Y20679D01*
X161560Y20633D01*
X161634Y20605D01*
X161671Y20587D01*
X161689Y20577D01*
X161985Y20411D01*
X162253Y20235D01*
X162512Y20050D01*
X162753Y19856D01*
X162975Y19653D01*
X163169Y19459D01*
X163354Y19264D01*
X163520Y19070D01*
X163659Y18895D01*
X163788Y18728D01*
X163899Y18580D01*
X163982Y18451D01*
X164047Y18340D01*
X164103Y18257D01*
X164130Y18210D01*
X164140Y18192D01*
X164287Y17896D01*
X164417Y17591D01*
X164528Y17286D01*
X164620Y16981D01*
X164704Y16685D01*
X164768Y16389D01*
X164824Y16102D01*
X164870Y15834D01*
X164898Y15585D01*
X164925Y15353D01*
X164944Y15150D01*
X164962Y14974D01*
Y14836D01*
X164972Y14780D01*
Y14734D01*
Y14697D01*
Y14660D01*
Y14651D01*
Y14642D01*
X164962Y14299D01*
X164935Y13967D01*
X164898Y13643D01*
X164851Y13329D01*
X164796Y13033D01*
X164731Y12756D01*
X164667Y12487D01*
X164593Y12247D01*
X164528Y12025D01*
X164463Y11822D01*
X164398Y11655D01*
X164343Y11507D01*
X164287Y11387D01*
X164251Y11304D01*
X164232Y11249D01*
X164223Y11230D01*
X164075Y10943D01*
X163908Y10675D01*
X163742Y10426D01*
X163557Y10194D01*
X163372Y9982D01*
X163187Y9778D01*
X163002Y9603D01*
X162827Y9446D01*
X162651Y9298D01*
X162494Y9178D01*
X162355Y9067D01*
X162226Y8983D01*
X162124Y8919D01*
X162050Y8863D01*
X162004Y8835D01*
X161985Y8826D01*
X161699Y8678D01*
X161403Y8549D01*
X161107Y8438D01*
X160802Y8336D01*
X160506Y8262D01*
X160219Y8188D01*
X159942Y8133D01*
X159674Y8087D01*
X159424Y8059D01*
X159193Y8031D01*
X158990Y8012D01*
X158814Y7994D01*
X158675D01*
X158620Y7985D01*
X158481D01*
X158185Y7994D01*
X157889Y8012D01*
X157603Y8040D01*
X157326Y8077D01*
X157057Y8123D01*
X156799Y8170D01*
X156558Y8225D01*
X156327Y8281D01*
X156124Y8336D01*
X155939Y8392D01*
X155772Y8438D01*
X155634Y8484D01*
X155513Y8521D01*
X155430Y8549D01*
X155384Y8567D01*
X155365Y8576D01*
X155088Y8687D01*
X154820Y8808D01*
X154570Y8928D01*
X154348Y9048D01*
X154136Y9168D01*
X153942Y9279D01*
X153766Y9390D01*
X153609Y9492D01*
X153470Y9593D01*
X153350Y9686D01*
X153239Y9760D01*
X153156Y9834D01*
X153091Y9889D01*
X153045Y9926D01*
X153017Y9954D01*
X153008Y9963D01*
Y15067D01*
X158574D01*
Y12903D01*
X155615D01*
Y11276D01*
X155846Y11110D01*
X156087Y10962D01*
X156318Y10832D01*
X156540Y10721D01*
X156641Y10675D01*
X156734Y10629D01*
X156817Y10592D01*
X156882Y10564D01*
X156937Y10537D01*
X156983Y10527D01*
X157011Y10509D01*
X157021D01*
X157326Y10407D01*
X157621Y10324D01*
X157889Y10268D01*
X158019Y10250D01*
X158139Y10231D01*
X158250Y10222D01*
X158343Y10213D01*
X158435Y10204D01*
X158509D01*
X158565Y10194D01*
X158648D01*
X158944Y10204D01*
X159230Y10241D01*
X159498Y10296D01*
X159748Y10370D01*
X159988Y10463D01*
X160210Y10555D01*
X160404Y10657D01*
X160589Y10768D01*
X160746Y10869D01*
X160894Y10971D01*
X161015Y11073D01*
X161116Y11156D01*
X161199Y11230D01*
X161255Y11285D01*
X161292Y11322D01*
X161301Y11332D01*
X161477Y11554D01*
X161634Y11803D01*
X161773Y12071D01*
X161884Y12349D01*
X161985Y12626D01*
X162059Y12913D01*
X162133Y13190D01*
X162180Y13467D01*
X162226Y13726D01*
X162253Y13967D01*
X162281Y14179D01*
X162290Y14374D01*
X162300Y14457D01*
Y14531D01*
X162309Y14586D01*
Y14642D01*
Y14688D01*
Y14716D01*
Y14734D01*
Y14743D01*
X162300Y15122D01*
X162263Y15483D01*
X162216Y15816D01*
X162152Y16130D01*
X162078Y16417D01*
X161995Y16676D01*
X161902Y16916D01*
X161810Y17129D01*
X161717Y17314D01*
X161625Y17471D01*
X161542Y17609D01*
X161468Y17720D01*
X161403Y17813D01*
X161357Y17878D01*
X161320Y17915D01*
X161310Y17924D01*
X161116Y18118D01*
X160904Y18284D01*
X160691Y18423D01*
X160469Y18553D01*
X160247Y18654D01*
X160016Y18737D01*
X159803Y18811D01*
X159591Y18867D01*
X159387Y18913D01*
X159212Y18950D01*
X159045Y18968D01*
X158897Y18987D01*
X158786Y18996D01*
X158694Y19006D01*
X158620D01*
X158417Y18996D01*
X158222Y18978D01*
X158028Y18950D01*
X157862Y18922D01*
X157695Y18876D01*
X157538Y18830D01*
X157400Y18784D01*
X157270Y18728D01*
X157159Y18673D01*
X157057Y18627D01*
X156965Y18580D01*
X156891Y18534D01*
X156836Y18506D01*
X156799Y18478D01*
X156771Y18460D01*
X156762Y18451D01*
X156623Y18349D01*
X156503Y18229D01*
X156392Y18109D01*
X156281Y17989D01*
X156188Y17868D01*
X156105Y17739D01*
X156031Y17619D01*
X155967Y17508D01*
X155911Y17397D01*
X155865Y17295D01*
X155819Y17203D01*
X155791Y17129D01*
X155763Y17064D01*
X155745Y17009D01*
X155735Y16981D01*
Y16971D01*
X153174Y17452D01*
X153258Y17776D01*
X153359Y18072D01*
X153479Y18358D01*
X153609Y18627D01*
X153748Y18867D01*
X153896Y19098D01*
X154034Y19301D01*
X154182Y19486D01*
X154321Y19653D01*
X154459Y19801D01*
X154580Y19921D01*
X154691Y20022D01*
X154774Y20106D01*
X154848Y20161D01*
X154885Y20198D01*
X154903Y20208D01*
X155162Y20383D01*
X155449Y20540D01*
X155745Y20679D01*
X156050Y20790D01*
X156355Y20892D01*
X156669Y20966D01*
X156974Y21040D01*
X157261Y21086D01*
X157538Y21132D01*
X157797Y21160D01*
X158028Y21188D01*
X158232Y21197D01*
X158315Y21206D01*
X158389D01*
X158463Y21215D01*
X158620D01*
X158953Y21206D01*
D02*
G37*
G36*
X137725Y8207D02*
X132612D01*
X132362Y8216D01*
X132131Y8234D01*
X131909Y8253D01*
X131706Y8271D01*
X131512Y8290D01*
X131345Y8318D01*
X131188Y8345D01*
X131050Y8364D01*
X130929Y8392D01*
X130818Y8410D01*
X130735Y8438D01*
X130670Y8447D01*
X130615Y8465D01*
X130587Y8475D01*
X130578D01*
X130365Y8549D01*
X130171Y8623D01*
X129986Y8706D01*
X129811Y8789D01*
X129654Y8872D01*
X129506Y8956D01*
X129367Y9039D01*
X129247Y9122D01*
X129136Y9196D01*
X129043Y9270D01*
X128960Y9325D01*
X128886Y9381D01*
X128840Y9427D01*
X128794Y9464D01*
X128775Y9483D01*
X128766Y9492D01*
X128600Y9658D01*
X128452Y9843D01*
X128313Y10028D01*
X128174Y10213D01*
X128054Y10407D01*
X127943Y10592D01*
X127841Y10777D01*
X127749Y10953D01*
X127666Y11119D01*
X127592Y11267D01*
X127536Y11406D01*
X127490Y11526D01*
X127444Y11618D01*
X127416Y11692D01*
X127407Y11739D01*
X127398Y11757D01*
X127324Y11979D01*
X127268Y12201D01*
X127166Y12663D01*
X127093Y13116D01*
X127074Y13338D01*
X127046Y13541D01*
X127037Y13736D01*
X127018Y13911D01*
X127009Y14078D01*
Y14207D01*
X127000Y14318D01*
Y14401D01*
Y14457D01*
Y14475D01*
Y14808D01*
X127018Y15122D01*
X127037Y15428D01*
X127065Y15705D01*
X127102Y15973D01*
X127139Y16223D01*
X127176Y16454D01*
X127213Y16666D01*
X127250Y16851D01*
X127287Y17018D01*
X127324Y17156D01*
X127361Y17277D01*
X127388Y17378D01*
X127407Y17443D01*
X127416Y17489D01*
X127425Y17499D01*
X127508Y17720D01*
X127601Y17942D01*
X127693Y18146D01*
X127795Y18340D01*
X127897Y18525D01*
X127999Y18691D01*
X128091Y18848D01*
X128193Y18996D01*
X128285Y19126D01*
X128368Y19237D01*
X128442Y19338D01*
X128516Y19422D01*
X128572Y19486D01*
X128609Y19533D01*
X128637Y19560D01*
X128646Y19569D01*
X128803Y19727D01*
X128960Y19865D01*
X129127Y19995D01*
X129284Y20115D01*
X129450Y20217D01*
X129607Y20318D01*
X129764Y20402D01*
X129912Y20485D01*
X130051Y20549D01*
X130181Y20605D01*
X130291Y20651D01*
X130393Y20688D01*
X130467Y20716D01*
X130532Y20735D01*
X130569Y20753D01*
X130578D01*
X130744Y20799D01*
X130920Y20836D01*
X131114Y20873D01*
X131308Y20901D01*
X131715Y20938D01*
X131909Y20956D01*
X132104Y20975D01*
X132289Y20984D01*
X132455Y20993D01*
X132612D01*
X132751Y21003D01*
X137725D01*
Y8207D01*
D02*
G37*
G36*
X197045Y72048D02*
X197405Y72001D01*
X197572Y71974D01*
X197729Y71937D01*
X197877Y71909D01*
X198015Y71872D01*
X198136Y71835D01*
X198247Y71798D01*
X198339Y71761D01*
X198422Y71733D01*
X198487Y71705D01*
X198533Y71687D01*
X198561Y71678D01*
X198570Y71669D01*
X198875Y71511D01*
X199005Y71419D01*
X199134Y71326D01*
X199254Y71243D01*
X199365Y71151D01*
X199467Y71058D01*
X199550Y70975D01*
X199633Y70892D01*
X199707Y70818D01*
X199763Y70753D01*
X199809Y70689D01*
X199855Y70642D01*
X199883Y70605D01*
X199892Y70587D01*
X199902Y70578D01*
X199985Y70439D01*
X200068Y70300D01*
X200207Y69995D01*
X200327Y69681D01*
X200429Y69385D01*
X200475Y69255D01*
X200502Y69126D01*
X200539Y69015D01*
X200558Y68913D01*
X200576Y68830D01*
X200595Y68775D01*
X200604Y68728D01*
Y68719D01*
X198348Y68340D01*
X198330Y68488D01*
X198302Y68636D01*
X198265Y68765D01*
X198228Y68886D01*
X198182Y69006D01*
X198136Y69107D01*
X198089Y69200D01*
X198043Y69283D01*
X197997Y69357D01*
X197960Y69422D01*
X197914Y69477D01*
X197886Y69524D01*
X197849Y69560D01*
X197831Y69588D01*
X197821Y69598D01*
X197812Y69607D01*
X197729Y69681D01*
X197636Y69755D01*
X197451Y69866D01*
X197267Y69940D01*
X197100Y69995D01*
X196952Y70032D01*
X196887Y70041D01*
X196832D01*
X196795Y70051D01*
X196730D01*
X196499Y70032D01*
X196305Y69986D01*
X196129Y69930D01*
X195981Y69856D01*
X195861Y69782D01*
X195778Y69727D01*
X195723Y69681D01*
X195704Y69662D01*
X195575Y69505D01*
X195482Y69339D01*
X195408Y69172D01*
X195362Y69006D01*
X195334Y68858D01*
X195325Y68802D01*
Y68747D01*
X195316Y68701D01*
Y68664D01*
Y68645D01*
Y68636D01*
X195325Y68497D01*
X195334Y68368D01*
X195362Y68238D01*
X195399Y68127D01*
X195482Y67915D01*
X195575Y67739D01*
X195630Y67665D01*
X195676Y67600D01*
X195723Y67545D01*
X195760Y67499D01*
X195797Y67462D01*
X195824Y67434D01*
X195833Y67425D01*
X195843Y67415D01*
X195944Y67332D01*
X196055Y67268D01*
X196176Y67212D01*
X196305Y67157D01*
X196555Y67083D01*
X196804Y67036D01*
X196915Y67018D01*
X197026Y67009D01*
X197119Y67000D01*
X197202Y66990D01*
X197368D01*
X197636Y64993D01*
X197405Y65058D01*
X197193Y65104D01*
X196998Y65132D01*
X196832Y65160D01*
X196703Y65169D01*
X196647D01*
X196601Y65178D01*
X196518D01*
X196388Y65169D01*
X196259Y65150D01*
X196139Y65132D01*
X196028Y65095D01*
X195824Y65002D01*
X195649Y64910D01*
X195501Y64808D01*
X195445Y64762D01*
X195399Y64716D01*
X195353Y64679D01*
X195325Y64660D01*
X195316Y64642D01*
X195306Y64633D01*
X195214Y64531D01*
X195140Y64411D01*
X195075Y64290D01*
X195020Y64170D01*
X194927Y63930D01*
X194872Y63690D01*
X194844Y63588D01*
X194835Y63486D01*
X194826Y63394D01*
X194816Y63320D01*
X194807Y63255D01*
Y63200D01*
Y63172D01*
Y63163D01*
X194816Y62987D01*
X194826Y62811D01*
X194853Y62654D01*
X194890Y62506D01*
X194927Y62367D01*
X194974Y62238D01*
X195020Y62127D01*
X195066Y62016D01*
X195122Y61924D01*
X195168Y61840D01*
X195214Y61776D01*
X195251Y61711D01*
X195288Y61665D01*
X195316Y61637D01*
X195325Y61618D01*
X195334Y61609D01*
X195436Y61508D01*
X195538Y61424D01*
X195639Y61341D01*
X195750Y61276D01*
X195861Y61221D01*
X195963Y61175D01*
X196166Y61110D01*
X196342Y61064D01*
X196416Y61055D01*
X196481Y61045D01*
X196536Y61036D01*
X196610D01*
X196740Y61045D01*
X196860Y61055D01*
X197091Y61110D01*
X197294Y61184D01*
X197470Y61276D01*
X197618Y61360D01*
X197673Y61397D01*
X197720Y61434D01*
X197757Y61461D01*
X197784Y61489D01*
X197803Y61498D01*
X197812Y61508D01*
X197895Y61600D01*
X197978Y61702D01*
X198108Y61933D01*
X198219Y62164D01*
X198293Y62386D01*
X198330Y62488D01*
X198348Y62589D01*
X198376Y62673D01*
X198385Y62756D01*
X198404Y62821D01*
Y62867D01*
X198413Y62894D01*
Y62904D01*
X200789Y62608D01*
X200743Y62312D01*
X200678Y62035D01*
X200604Y61767D01*
X200512Y61526D01*
X200401Y61295D01*
X200290Y61073D01*
X200179Y60879D01*
X200059Y60703D01*
X199948Y60546D01*
X199837Y60398D01*
X199735Y60278D01*
X199652Y60185D01*
X199578Y60102D01*
X199513Y60047D01*
X199476Y60010D01*
X199467Y60001D01*
X199245Y59825D01*
X199014Y59668D01*
X198774Y59538D01*
X198533Y59427D01*
X198293Y59326D01*
X198052Y59242D01*
X197821Y59178D01*
X197599Y59131D01*
X197387Y59085D01*
X197202Y59057D01*
X197026Y59030D01*
X196878Y59021D01*
X196758Y59011D01*
X196666Y59002D01*
X196592D01*
X196259Y59011D01*
X195935Y59057D01*
X195630Y59113D01*
X195343Y59187D01*
X195066Y59279D01*
X194816Y59381D01*
X194585Y59483D01*
X194373Y59594D01*
X194188Y59705D01*
X194012Y59816D01*
X193873Y59908D01*
X193753Y60001D01*
X193661Y60075D01*
X193587Y60139D01*
X193550Y60176D01*
X193531Y60185D01*
X193309Y60417D01*
X193125Y60648D01*
X192958Y60888D01*
X192810Y61138D01*
X192699Y61378D01*
X192598Y61618D01*
X192514Y61850D01*
X192450Y62072D01*
X192394Y62275D01*
X192357Y62460D01*
X192329Y62636D01*
X192311Y62774D01*
X192302Y62894D01*
X192292Y62987D01*
Y63042D01*
Y63061D01*
X192302Y63274D01*
X192320Y63477D01*
X192357Y63671D01*
X192394Y63856D01*
X192440Y64032D01*
X192496Y64198D01*
X192561Y64346D01*
X192616Y64485D01*
X192681Y64605D01*
X192745Y64716D01*
X192801Y64818D01*
X192847Y64892D01*
X192884Y64956D01*
X192921Y65002D01*
X192940Y65030D01*
X192949Y65039D01*
X193078Y65187D01*
X193217Y65317D01*
X193356Y65446D01*
X193504Y65548D01*
X193642Y65650D01*
X193790Y65733D01*
X193938Y65807D01*
X194077Y65872D01*
X194206Y65927D01*
X194326Y65973D01*
X194428Y66020D01*
X194521Y66047D01*
X194604Y66066D01*
X194659Y66084D01*
X194696Y66093D01*
X194706D01*
X194539Y66186D01*
X194382Y66288D01*
X194234Y66389D01*
X194095Y66500D01*
X193966Y66602D01*
X193846Y66713D01*
X193633Y66935D01*
X193457Y67166D01*
X193309Y67388D01*
X193189Y67610D01*
X193088Y67813D01*
X193014Y68017D01*
X192958Y68201D01*
X192912Y68359D01*
X192884Y68506D01*
X192866Y68627D01*
X192856Y68710D01*
Y68765D01*
Y68784D01*
X192866Y69006D01*
X192893Y69218D01*
X192940Y69422D01*
X192995Y69616D01*
X193069Y69801D01*
X193143Y69977D01*
X193226Y70143D01*
X193309Y70291D01*
X193393Y70430D01*
X193476Y70550D01*
X193550Y70651D01*
X193624Y70744D01*
X193679Y70818D01*
X193725Y70864D01*
X193753Y70901D01*
X193762Y70910D01*
X193975Y71114D01*
X194197Y71289D01*
X194437Y71447D01*
X194678Y71576D01*
X194918Y71687D01*
X195159Y71789D01*
X195390Y71863D01*
X195621Y71918D01*
X195833Y71974D01*
X196028Y72001D01*
X196203Y72029D01*
X196360Y72048D01*
X196481Y72057D01*
X196573Y72066D01*
X196850D01*
X197045Y72048D01*
D02*
G37*
G36*
X182141D02*
X182501Y72001D01*
X182668Y71974D01*
X182825Y71937D01*
X182973Y71909D01*
X183111Y71872D01*
X183232Y71835D01*
X183343Y71798D01*
X183435Y71761D01*
X183518Y71733D01*
X183583Y71705D01*
X183629Y71687D01*
X183657Y71678D01*
X183666Y71669D01*
X183971Y71511D01*
X184101Y71419D01*
X184230Y71326D01*
X184350Y71243D01*
X184461Y71151D01*
X184563Y71058D01*
X184646Y70975D01*
X184729Y70892D01*
X184804Y70818D01*
X184859Y70753D01*
X184905Y70689D01*
X184951Y70642D01*
X184979Y70605D01*
X184988Y70587D01*
X184998Y70578D01*
X185081Y70439D01*
X185164Y70300D01*
X185303Y69995D01*
X185423Y69681D01*
X185525Y69385D01*
X185571Y69255D01*
X185599Y69126D01*
X185636Y69015D01*
X185654Y68913D01*
X185673Y68830D01*
X185691Y68775D01*
X185700Y68728D01*
Y68719D01*
X183444Y68340D01*
X183426Y68488D01*
X183398Y68636D01*
X183361Y68765D01*
X183324Y68886D01*
X183278Y69006D01*
X183232Y69107D01*
X183186Y69200D01*
X183139Y69283D01*
X183093Y69357D01*
X183056Y69422D01*
X183010Y69477D01*
X182982Y69524D01*
X182945Y69560D01*
X182927Y69588D01*
X182917Y69598D01*
X182908Y69607D01*
X182825Y69681D01*
X182733Y69755D01*
X182548Y69866D01*
X182363Y69940D01*
X182196Y69995D01*
X182048Y70032D01*
X181984Y70041D01*
X181928D01*
X181891Y70051D01*
X181826D01*
X181595Y70032D01*
X181401Y69986D01*
X181225Y69930D01*
X181077Y69856D01*
X180957Y69782D01*
X180874Y69727D01*
X180819Y69681D01*
X180800Y69662D01*
X180671Y69505D01*
X180578Y69339D01*
X180504Y69172D01*
X180458Y69006D01*
X180430Y68858D01*
X180421Y68802D01*
Y68747D01*
X180412Y68701D01*
Y68664D01*
Y68645D01*
Y68636D01*
X180421Y68497D01*
X180430Y68368D01*
X180458Y68238D01*
X180495Y68127D01*
X180578Y67915D01*
X180671Y67739D01*
X180726Y67665D01*
X180772Y67600D01*
X180819Y67545D01*
X180856Y67499D01*
X180893Y67462D01*
X180920Y67434D01*
X180930Y67425D01*
X180939Y67415D01*
X181040Y67332D01*
X181152Y67268D01*
X181272Y67212D01*
X181401Y67157D01*
X181651Y67083D01*
X181900Y67036D01*
X182011Y67018D01*
X182122Y67009D01*
X182215Y67000D01*
X182298Y66990D01*
X182464D01*
X182733Y64993D01*
X182501Y65058D01*
X182289Y65104D01*
X182094Y65132D01*
X181928Y65160D01*
X181799Y65169D01*
X181743D01*
X181697Y65178D01*
X181614D01*
X181484Y65169D01*
X181355Y65150D01*
X181235Y65132D01*
X181124Y65095D01*
X180920Y65002D01*
X180745Y64910D01*
X180597Y64808D01*
X180541Y64762D01*
X180495Y64716D01*
X180449Y64679D01*
X180421Y64660D01*
X180412Y64642D01*
X180403Y64633D01*
X180310Y64531D01*
X180236Y64411D01*
X180171Y64290D01*
X180116Y64170D01*
X180023Y63930D01*
X179968Y63690D01*
X179940Y63588D01*
X179931Y63486D01*
X179922Y63394D01*
X179913Y63320D01*
X179903Y63255D01*
Y63200D01*
Y63172D01*
Y63163D01*
X179913Y62987D01*
X179922Y62811D01*
X179950Y62654D01*
X179986Y62506D01*
X180023Y62367D01*
X180070Y62238D01*
X180116Y62127D01*
X180162Y62016D01*
X180218Y61924D01*
X180264Y61840D01*
X180310Y61776D01*
X180347Y61711D01*
X180384Y61665D01*
X180412Y61637D01*
X180421Y61618D01*
X180430Y61609D01*
X180532Y61508D01*
X180634Y61424D01*
X180735Y61341D01*
X180846Y61276D01*
X180957Y61221D01*
X181059Y61175D01*
X181262Y61110D01*
X181438Y61064D01*
X181512Y61055D01*
X181577Y61045D01*
X181632Y61036D01*
X181706D01*
X181836Y61045D01*
X181956Y61055D01*
X182187Y61110D01*
X182390Y61184D01*
X182566Y61276D01*
X182714Y61360D01*
X182770Y61397D01*
X182816Y61434D01*
X182853Y61461D01*
X182880Y61489D01*
X182899Y61498D01*
X182908Y61508D01*
X182991Y61600D01*
X183075Y61702D01*
X183204Y61933D01*
X183315Y62164D01*
X183389Y62386D01*
X183426Y62488D01*
X183444Y62589D01*
X183472Y62673D01*
X183481Y62756D01*
X183500Y62821D01*
Y62867D01*
X183509Y62894D01*
Y62904D01*
X185885Y62608D01*
X185839Y62312D01*
X185774Y62035D01*
X185700Y61767D01*
X185608Y61526D01*
X185497Y61295D01*
X185386Y61073D01*
X185275Y60879D01*
X185155Y60703D01*
X185044Y60546D01*
X184933Y60398D01*
X184831Y60278D01*
X184748Y60185D01*
X184674Y60102D01*
X184609Y60047D01*
X184572Y60010D01*
X184563Y60001D01*
X184341Y59825D01*
X184110Y59668D01*
X183870Y59538D01*
X183629Y59427D01*
X183389Y59326D01*
X183148Y59242D01*
X182917Y59178D01*
X182696Y59131D01*
X182483Y59085D01*
X182298Y59057D01*
X182122Y59030D01*
X181974Y59021D01*
X181854Y59011D01*
X181762Y59002D01*
X181688D01*
X181355Y59011D01*
X181031Y59057D01*
X180726Y59113D01*
X180440Y59187D01*
X180162Y59279D01*
X179913Y59381D01*
X179681Y59483D01*
X179469Y59594D01*
X179284Y59705D01*
X179108Y59816D01*
X178969Y59908D01*
X178849Y60001D01*
X178757Y60075D01*
X178683Y60139D01*
X178646Y60176D01*
X178627Y60185D01*
X178405Y60417D01*
X178221Y60648D01*
X178054Y60888D01*
X177906Y61138D01*
X177795Y61378D01*
X177694Y61618D01*
X177610Y61850D01*
X177546Y62072D01*
X177490Y62275D01*
X177453Y62460D01*
X177425Y62636D01*
X177407Y62774D01*
X177398Y62894D01*
X177388Y62987D01*
Y63042D01*
Y63061D01*
X177398Y63274D01*
X177416Y63477D01*
X177453Y63671D01*
X177490Y63856D01*
X177536Y64032D01*
X177592Y64198D01*
X177657Y64346D01*
X177712Y64485D01*
X177777Y64605D01*
X177842Y64716D01*
X177897Y64818D01*
X177943Y64892D01*
X177980Y64956D01*
X178017Y65002D01*
X178036Y65030D01*
X178045Y65039D01*
X178174Y65187D01*
X178313Y65317D01*
X178452Y65446D01*
X178600Y65548D01*
X178738Y65650D01*
X178886Y65733D01*
X179034Y65807D01*
X179173Y65872D01*
X179302Y65927D01*
X179423Y65973D01*
X179524Y66020D01*
X179617Y66047D01*
X179700Y66066D01*
X179755Y66084D01*
X179792Y66093D01*
X179802D01*
X179635Y66186D01*
X179478Y66288D01*
X179330Y66389D01*
X179191Y66500D01*
X179062Y66602D01*
X178942Y66713D01*
X178729Y66935D01*
X178554Y67166D01*
X178405Y67388D01*
X178285Y67610D01*
X178184Y67813D01*
X178110Y68017D01*
X178054Y68201D01*
X178008Y68359D01*
X177980Y68506D01*
X177962Y68627D01*
X177952Y68710D01*
Y68765D01*
Y68784D01*
X177962Y69006D01*
X177990Y69218D01*
X178036Y69422D01*
X178091Y69616D01*
X178165Y69801D01*
X178239Y69977D01*
X178322Y70143D01*
X178405Y70291D01*
X178489Y70430D01*
X178572Y70550D01*
X178646Y70651D01*
X178720Y70744D01*
X178775Y70818D01*
X178822Y70864D01*
X178849Y70901D01*
X178859Y70910D01*
X179071Y71114D01*
X179293Y71289D01*
X179534Y71447D01*
X179774Y71576D01*
X180014Y71687D01*
X180255Y71789D01*
X180486Y71863D01*
X180717Y71918D01*
X180930Y71974D01*
X181124Y72001D01*
X181299Y72029D01*
X181457Y72048D01*
X181577Y72057D01*
X181669Y72066D01*
X181947D01*
X182141Y72048D01*
D02*
G37*
G36*
X134461Y65881D02*
X138890Y59224D01*
X135793D01*
X132945Y63551D01*
X130106Y59224D01*
X127000D01*
X131410Y65890D01*
X127388Y72020D01*
X130384D01*
X132926Y68183D01*
X135460Y72020D01*
X138483D01*
X134461Y65881D01*
D02*
G37*
G36*
X172054Y59224D02*
X169271D01*
X164713Y72020D01*
X167459D01*
X170584Y62552D01*
X173829Y72020D01*
X176621D01*
X172054Y59224D01*
D02*
G37*
G36*
X190240D02*
X187790D01*
Y61674D01*
X190240D01*
Y59224D01*
D02*
G37*
G36*
X149411Y69856D02*
X145611D01*
Y59224D01*
X143032D01*
Y69856D01*
X139241D01*
Y72020D01*
X149411D01*
Y69856D01*
D02*
G37*
G36*
X159776Y59002D02*
X157963D01*
X154755Y72232D01*
X156604D01*
X159776Y59002D01*
D02*
G37*
%LPC*%
G36*
X147904Y44234D02*
X145140D01*
X144937Y44225D01*
X144761D01*
X144613Y44216D01*
X144363D01*
X144271Y44207D01*
X144197D01*
X144132Y44198D01*
X144086D01*
X144049Y44188D01*
X144012D01*
X143790Y44133D01*
X143596Y44059D01*
X143429Y43976D01*
X143291Y43892D01*
X143180Y43809D01*
X143106Y43745D01*
X143060Y43698D01*
X143041Y43689D01*
Y43680D01*
X142921Y43523D01*
X142838Y43356D01*
X142773Y43180D01*
X142736Y43014D01*
X142708Y42866D01*
X142699Y42811D01*
Y42755D01*
X142690Y42709D01*
Y42672D01*
Y42653D01*
Y42644D01*
X142699Y42441D01*
X142727Y42256D01*
X142773Y42090D01*
X142819Y41951D01*
X142875Y41840D01*
X142912Y41757D01*
X142949Y41701D01*
X142958Y41683D01*
X143060Y41544D01*
X143180Y41433D01*
X143300Y41341D01*
X143411Y41267D01*
X143522Y41211D01*
X143605Y41165D01*
X143661Y41146D01*
X143670Y41137D01*
X143679D01*
X143781Y41109D01*
X143910Y41091D01*
X144067Y41073D01*
X144234Y41054D01*
X144419Y41035D01*
X144613Y41026D01*
X145010Y41008D01*
X145205Y40999D01*
X145556D01*
X145704Y40989D01*
X147904D01*
Y44234D01*
D02*
G37*
G36*
X135145Y18839D02*
X133703D01*
X133444Y18830D01*
X133204D01*
X132991Y18821D01*
X132797Y18811D01*
X132621Y18802D01*
X132464Y18784D01*
X132335Y18774D01*
X132214Y18765D01*
X132122Y18747D01*
X132039Y18737D01*
X131974Y18728D01*
X131928Y18719D01*
X131891D01*
X131872Y18710D01*
X131863D01*
X131604Y18636D01*
X131364Y18553D01*
X131160Y18451D01*
X130985Y18349D01*
X130846Y18257D01*
X130791Y18220D01*
X130744Y18183D01*
X130708Y18155D01*
X130680Y18127D01*
X130670Y18118D01*
X130661Y18109D01*
X130495Y17924D01*
X130347Y17730D01*
X130227Y17526D01*
X130116Y17323D01*
X130042Y17147D01*
X130005Y17064D01*
X129977Y16999D01*
X129959Y16944D01*
X129940Y16907D01*
X129931Y16879D01*
Y16870D01*
X129885Y16713D01*
X129838Y16546D01*
X129811Y16361D01*
X129774Y16176D01*
X129727Y15797D01*
X129709Y15612D01*
X129700Y15437D01*
X129681Y15261D01*
X129672Y15104D01*
Y14965D01*
X129663Y14836D01*
Y14734D01*
Y14660D01*
Y14614D01*
Y14595D01*
Y14327D01*
X129672Y14068D01*
X129691Y13828D01*
X129700Y13606D01*
X129727Y13393D01*
X129746Y13209D01*
X129774Y13033D01*
X129792Y12876D01*
X129820Y12728D01*
X129848Y12608D01*
X129866Y12497D01*
X129885Y12413D01*
X129903Y12349D01*
X129922Y12293D01*
X129931Y12265D01*
Y12256D01*
X129977Y12099D01*
X130033Y11960D01*
X130088Y11822D01*
X130143Y11702D01*
X130199Y11591D01*
X130254Y11489D01*
X130310Y11396D01*
X130365Y11313D01*
X130412Y11239D01*
X130458Y11184D01*
X130504Y11128D01*
X130532Y11091D01*
X130569Y11054D01*
X130587Y11036D01*
X130597Y11027D01*
X130606Y11017D01*
X130772Y10888D01*
X130948Y10777D01*
X131114Y10684D01*
X131281Y10620D01*
X131429Y10564D01*
X131493Y10537D01*
X131549Y10518D01*
X131586Y10509D01*
X131623Y10500D01*
X131641Y10490D01*
X131650D01*
X131743Y10472D01*
X131854Y10453D01*
X132094Y10426D01*
X132353Y10398D01*
X132612Y10389D01*
X132732Y10379D01*
X132843D01*
X132945Y10370D01*
X135145D01*
Y18839D01*
D02*
G37*
%LPD*%
M02*
